<svg width="77" height="31" viewBox="0 0 77 31" fill="none" xmlns="http://www.w3.org/2000/svg">
<path d="M71.5885 21.2308C69.1978 21.2308 67.1855 22.9928 66.8071 25.3827C66.8071 25.6347 66.6815 25.8866 66.6815 26.0122V26.2641C66.6815 27.0184 66.9335 27.7734 67.3102 28.4029C67.5622 28.7804 67.8141 29.0315 68.0652 29.4091C68.9459 30.2897 70.2048 30.7936 71.4621 30.7936C72.8466 30.7936 73.9792 30.2897 74.8606 29.4091C75.1109 29.1571 75.3629 28.7804 75.6149 28.4029C75.9924 27.7734 76.2435 27.0192 76.2435 26.2633V26.0122C76.2435 25.7602 76.2435 25.5083 76.1188 25.3827C76.1188 23.1184 74.1048 21.2308 71.5885 21.2308ZM75.4893 26.3897C75.4893 27.191 75.1729 27.9593 74.6087 28.5293C74.2303 28.906 73.8528 29.2835 73.3506 29.5354C72.8466 29.7874 72.218 30.0394 71.5885 30.0394C70.9599 30.0394 70.3304 29.913 69.8273 29.5354C69.3234 29.2835 68.9459 28.906 68.5692 28.5293C68.0652 27.8998 67.6877 27.1456 67.6877 26.3897V26.1386C67.6877 25.8866 67.6877 25.6347 67.8141 25.5091C68.1916 23.7471 69.7009 22.3634 71.5893 22.3634C73.4761 22.3634 75.1109 23.7479 75.3629 25.5091C75.3629 25.7611 75.4893 26.013 75.4893 26.1378V26.3897ZM46.929 14.1843H44.4127C44.1616 14.1843 43.9088 14.4362 43.9088 14.6882C43.9088 14.9393 44.1616 15.1921 44.4127 15.1921H46.9298C47.1809 15.1921 47.4329 14.9393 47.4329 14.6882C47.4329 14.4362 47.1809 14.1843 46.929 14.1843ZM24.0282 14.1843H21.5111C21.26 14.1843 21.0072 14.4362 21.0072 14.6882C21.0072 14.9393 21.26 15.1921 21.5111 15.1921H24.0282C24.2793 15.1921 24.5321 14.9393 24.5321 14.6882C24.5321 14.4362 24.2793 14.1843 24.0282 14.1843ZM15.2196 21.2308C12.8289 21.2308 10.8158 22.9928 10.4374 25.3827C10.4374 25.6347 10.3118 25.8866 10.3118 26.0122V26.2641C10.3118 27.0184 10.5638 27.7734 10.9413 28.4029C11.1933 28.7804 11.4452 29.0315 11.6955 29.4091C12.577 30.2897 13.8351 30.7936 15.0932 30.7936C16.4778 30.7936 17.6095 30.2897 18.4901 29.4091C18.7421 29.1571 18.994 28.7804 19.2451 28.4029C19.6227 27.7734 19.8738 27.0192 19.8738 26.2633V26.0122C19.8738 25.7602 19.8738 25.5083 19.7482 25.3827C19.7482 23.1184 17.7359 21.2308 15.2188 21.2308H15.2196ZM19.1204 26.3897C19.1204 27.2711 18.7429 28.0254 18.239 28.5293C17.8623 28.906 17.4848 29.2835 16.9808 29.5354C16.4769 29.7874 15.8491 30.0394 15.2196 30.0394C14.5901 30.0394 13.9615 29.913 13.4576 29.5354C12.9537 29.2835 12.577 28.906 12.1995 28.5293C11.6955 27.8998 11.3188 27.1456 11.3188 26.3897V26.1386C11.3188 25.8866 11.3188 25.6347 11.4444 25.5091C11.8219 23.7471 13.332 22.3634 15.2196 22.3634C17.1064 22.3634 18.7421 23.7479 18.994 25.5091C18.994 25.7611 19.1196 26.013 19.1196 26.1378V26.3897H19.1204ZM72.3427 11.288L61.8993 5.75158C59.2575 4.36871 57.1188 3.36088 55.1048 2.73306C50.0722 1.09741 44.9133 0.216797 39.6288 0.216797H6.15993C2.88862 0.216797 0.245972 2.98419 0.245972 6.38188C0.245972 10.1563 3.13976 13.1765 6.78858 13.1765H71.8396C72.3427 13.1765 72.7211 12.9245 72.8466 12.4214C72.9714 12.0439 72.7202 11.5408 72.3427 11.2888V11.288ZM6.66302 12.2942C3.64367 12.1686 1.25215 9.65236 1.25215 6.50662C1.25215 3.61284 3.51728 1.34771 6.28549 1.34771H6.66302V12.2942ZM16.7297 12.2942H7.54362V1.22214H16.7297V12.2942ZM19.4971 12.2942H17.7359V1.22214H19.4979L19.4971 12.2942ZM41.894 12.2942H20.3777V1.22214H39.6288C40.3839 1.22214 41.1389 1.22214 41.8932 1.34771L41.894 12.2942ZM42.9002 12.2942V1.34854C46.9265 1.59967 50.9529 2.35471 54.8536 3.73923C56.8668 4.36788 59.0056 5.37488 61.5218 6.75858L71.9652 12.295L42.9002 12.2942Z" fill="#0F0F0F" stroke="#0F0F0F" stroke-width="0.3"/>
</svg>
