<svg width="94" height="38" viewBox="0 0 94 38" fill="none" xmlns="http://www.w3.org/2000/svg">
<g clip-path="url(#clip0_1_5406)">
<path d="M88.5486 15.9246L85.4029 14.7928C81.7541 13.4075 78.1052 11.8982 74.5812 10.137L65.02 5.48117C58.7286 2.46182 51.8076 0.826172 44.8875 0.826172H8.27446C6.76438 0.826172 5.38068 1.45565 4.24812 2.46182C0.975985 5.73313 0.724855 13.1572 0.85042 16.051V22.8447C0.85042 28.2556 5.1279 32.533 10.5388 32.533H11.5449C12.9295 35.4268 15.8232 37.5656 19.2201 37.5656C22.6178 37.5656 25.6372 35.5524 26.8953 32.533H67.9146C69.2983 35.4268 72.1921 37.5656 75.589 37.5656C78.9867 37.5656 82.0069 35.5524 83.265 32.533H83.5161C88.8014 32.533 93.2045 28.13 93.2045 22.8447C93.2045 19.8253 91.3169 17.0571 88.5486 15.9246ZM10.4124 31.6533C8.27281 31.6533 6.26046 30.7718 4.75038 29.5137H10.7907C10.7907 30.2687 10.9163 31.0238 11.1682 31.6533H10.4132H10.4124ZM26.6442 29.3881C26.6442 30.1423 26.5186 30.8982 26.2666 31.5277C26.1402 31.9044 26.0147 32.1555 25.8891 32.5339C25.2498 33.7488 24.2906 34.766 23.1153 35.4754C21.9399 36.1849 20.593 36.5597 19.2201 36.5594C16.3263 36.5594 13.8092 34.9237 12.6775 32.5339C12.5519 32.2819 12.4264 31.9044 12.3 31.5269C12.0489 30.8982 11.9233 30.1432 11.9233 29.3881V29.1362C11.9233 28.8842 11.9233 28.6323 12.0489 28.5075C12.4264 24.7323 15.5721 21.713 19.4729 21.713C23.3737 21.713 26.5194 24.7323 26.8961 28.5075C26.8961 28.7586 27.0217 29.0114 27.0217 29.1362C26.7697 29.2617 26.7697 29.2617 26.6442 29.3881ZM27.3984 31.6524C27.6503 30.8982 27.7759 30.2687 27.7759 29.5137H67.1579C67.1579 30.2687 67.2843 31.0238 67.5355 31.6533L27.3984 31.6524ZM83.1378 29.3881C83.1378 30.1423 83.0122 30.8982 82.7603 31.5277C82.6347 31.9044 82.5091 32.1555 82.3836 32.5339C81.1254 34.9246 78.6083 36.5594 75.841 36.5594C74.4681 36.5597 73.1212 36.1849 71.9458 35.4754C70.7704 34.766 69.8113 33.7488 69.172 32.5339C69.0456 32.2819 68.92 31.9044 68.7944 31.5269C68.5425 30.8982 68.4169 30.1432 68.4169 29.3881V29.1362C68.4169 28.8842 68.4169 28.6323 68.5425 28.5075C68.92 24.7323 72.0657 21.713 75.9665 21.713C79.8673 21.713 83.0122 24.7323 83.3897 28.5075C83.3897 28.7586 83.5153 29.0114 83.5153 29.1362C83.1378 29.2617 83.1378 29.2617 83.1378 29.3881ZM83.7673 31.6524C84.0192 30.8982 84.1448 30.2687 84.1448 29.5137H89.4293C87.7936 30.7718 85.906 31.526 83.7673 31.6524ZM90.3107 28.5075H84.1448C83.7673 24.1036 80.1184 20.7068 75.7146 20.7068C71.3115 20.7068 67.6619 24.1036 67.2843 28.5075H27.7759C27.3984 24.1036 23.7496 20.7068 19.3457 20.7068C14.9426 20.7068 11.293 24.1036 10.9155 28.5075H3.99533C2.7372 26.9974 1.98299 24.9843 1.98299 22.8455V21.5874H4.49925C4.75038 21.5874 5.00316 21.3354 5.00316 21.0835C5.00316 20.8323 4.75038 20.5796 4.49925 20.5796H1.98216V19.0703H6.25964C6.51159 19.0703 6.76355 18.8183 6.76355 18.5664C6.76355 18.3153 6.51159 18.0625 6.25964 18.0625H1.73103V15.9246C1.73103 13.0308 1.85659 5.98426 4.87594 2.96491C5.75738 1.95791 6.88994 1.58039 8.14725 1.58039H44.7627C51.5565 1.58039 58.3519 3.21604 64.5169 6.10982L74.0797 10.7656C77.6022 12.5269 81.3774 14.037 85.0262 15.4206L88.172 16.5532C89.5556 17.0571 90.5618 18.0633 91.3177 19.3214H86.9138C86.6619 19.3214 86.4099 19.5734 86.4099 19.8253C86.4099 20.0765 86.6619 20.3293 86.9138 20.3293H91.8199C92.0719 21.0835 92.1983 21.8385 92.1983 22.5927C92.3239 24.9843 91.5688 26.8727 90.3107 28.5075Z" fill="#0F0F0F" stroke="#0F0F0F" stroke-width="0.3"/>
<path d="M75.5885 24.2308C73.1978 24.2308 71.1855 25.9928 70.8071 28.3827C70.8071 28.6347 70.6815 28.8866 70.6815 29.0122V29.2641C70.6815 30.0184 70.9335 30.7734 71.3102 31.4029C71.5622 31.7804 71.8141 32.0315 72.0652 32.4091C72.9459 33.2897 74.2048 33.7936 75.4621 33.7936C76.8466 33.7936 77.9792 33.2897 78.8606 32.4091C79.1109 32.1571 79.3629 31.7804 79.6149 31.4029C79.9924 30.7734 80.2435 30.0192 80.2435 29.2633V29.0122C80.2435 28.7602 80.2435 28.5083 80.1188 28.3827C80.1188 26.1184 78.1048 24.2308 75.5885 24.2308ZM79.4893 29.3897C79.4893 30.191 79.1729 30.9593 78.6087 31.5293C78.2303 31.906 77.8528 32.2835 77.3506 32.5354C76.8466 32.7874 76.218 33.0394 75.5885 33.0394C74.9599 33.0394 74.3304 32.913 73.8273 32.5354C73.3234 32.2835 72.9459 31.906 72.5692 31.5293C72.0652 30.8998 71.6877 30.1456 71.6877 29.3897V29.1386C71.6877 28.8866 71.6877 28.6347 71.8141 28.5091C72.1916 26.7471 73.7009 25.3634 75.5893 25.3634C77.4761 25.3634 79.1109 26.7479 79.3629 28.5091C79.3629 28.7611 79.4893 29.013 79.4893 29.1378V29.3897ZM50.929 17.1843H48.4127C48.1616 17.1843 47.9088 17.4362 47.9088 17.6882C47.9088 17.9393 48.1616 18.1921 48.4127 18.1921H50.9298C51.1809 18.1921 51.4329 17.9393 51.4329 17.6882C51.4329 17.4362 51.1809 17.1843 50.929 17.1843ZM28.0282 17.1843H25.5111C25.26 17.1843 25.0072 17.4362 25.0072 17.6882C25.0072 17.9393 25.26 18.1921 25.5111 18.1921H28.0282C28.2793 18.1921 28.5321 17.9393 28.5321 17.6882C28.5321 17.4362 28.2793 17.1843 28.0282 17.1843ZM19.2196 24.2308C16.8289 24.2308 14.8158 25.9928 14.4374 28.3827C14.4374 28.6347 14.3118 28.8866 14.3118 29.0122V29.2641C14.3118 30.0184 14.5638 30.7734 14.9413 31.4029C15.1933 31.7804 15.4452 32.0315 15.6955 32.4091C16.577 33.2897 17.8351 33.7936 19.0932 33.7936C20.4778 33.7936 21.6095 33.2897 22.4901 32.4091C22.7421 32.1571 22.994 31.7804 23.2451 31.4029C23.6227 30.7734 23.8738 30.0192 23.8738 29.2633V29.0122C23.8738 28.7602 23.8738 28.5083 23.7482 28.3827C23.7482 26.1184 21.7359 24.2308 19.2188 24.2308H19.2196ZM23.1204 29.3897C23.1204 30.2711 22.7429 31.0254 22.239 31.5293C21.8623 31.906 21.4848 32.2835 20.9808 32.5354C20.4769 32.7874 19.8491 33.0394 19.2196 33.0394C18.5901 33.0394 17.9615 32.913 17.4576 32.5354C16.9537 32.2835 16.577 31.906 16.1995 31.5293C15.6955 30.8998 15.3188 30.1456 15.3188 29.3897V29.1386C15.3188 28.8866 15.3188 28.6347 15.4444 28.5091C15.8219 26.7471 17.332 25.3634 19.2196 25.3634C21.1064 25.3634 22.7421 26.7479 22.994 28.5091C22.994 28.7611 23.1196 29.013 23.1196 29.1378V29.3897H23.1204ZM76.3427 14.288L65.8993 8.75158C63.2575 7.36871 61.1188 6.36088 59.1048 5.73306C54.0722 4.09741 48.9133 3.2168 43.6288 3.2168H10.1599C6.88862 3.2168 4.24597 5.98419 4.24597 9.38188C4.24597 13.1563 7.13976 16.1765 10.7886 16.1765H75.8396C76.3427 16.1765 76.7211 15.9245 76.8466 15.4214C76.9714 15.0439 76.7202 14.5408 76.3427 14.2888V14.288ZM10.663 15.2942C7.64367 15.1686 5.25215 12.6524 5.25215 9.50662C5.25215 6.61284 7.51728 4.34771 10.2855 4.34771H10.663V15.2942ZM20.7297 15.2942H11.5436V4.22214H20.7297V15.2942ZM23.4971 15.2942H21.7359V4.22214H23.4979L23.4971 15.2942ZM45.894 15.2942H24.3777V4.22214H43.6288C44.3839 4.22214 45.1389 4.22214 45.8932 4.34771L45.894 15.2942ZM46.9002 15.2942V4.34854C50.9265 4.59967 54.9529 5.35471 58.8536 6.73923C60.8668 7.36788 63.0056 8.37488 65.5218 9.75858L75.9652 15.295L46.9002 15.2942Z" fill="#0F0F0F" stroke="#0F0F0F" stroke-width="0.3"/>
</g>
<defs>
<clipPath id="clip0_1_5406">
<rect width="93.3478" height="38" fill="white"/>
</clipPath>
</defs>
</svg>
